<svg xmlns="http://www.w3.org/2000/svg" viewBox="0 0 415.8 110.5"><title>dart</title><path d="M234.8,60c9,8.3,13.6,19.7,13.6,34.4s-4.5,26.5-13.3,35.1-22.3,13-40.4,13H162.8V47.9h33C212.7,47.9,225.7,51.7,234.8,60Zm-15.6,56.2c5.2-4.9,7.8-12,7.8-21.4s-2.6-16.6-7.8-21.7-13.2-7.6-24-7.6H183v58h13.8C206.5,123.5,214,121.1,219.2,116.2Z" transform="translate(-23 -32.8)" style="fill:#231f20"/><path d="M323.6,142.5h-19v-9.1c-5.4,6.6-11.7,9.9-19.4,9.9s-14.2-2.2-19.5-6.7-7.8-10.5-7.8-17.9,2.7-13,8.1-16.7,12.9-5.5,22.3-5.5h15v-.6c0-7.8-4-11.7-12.2-11.7a33,33,0,0,0-11.2,2.1,40.8,40.8,0,0,0-10,5.2l-9.1-13.1a54.5,54.5,0,0,1,32.9-10.5c8.9,0,16,2.2,21.6,6.7s8.3,11.4,8.3,21v46.9Zm-20.3-28.1v-3H290.6c-8.1,0-12.2,2.3-12.2,7.3a6.7,6.7,0,0,0,2.9,5.9c2,1.5,4.7,2.1,8.4,2.1a14.9,14.9,0,0,0,9.5-3.4A10.7,10.7,0,0,0,303.3,114.4Z" transform="translate(-23 -32.8)" style="fill:#231f20"/><path d="M377.3,87.1c-6.1,0-10.9,2.1-13.9,6.4s-4.7,10-4.7,17.1v31.9H338.4v-73h20.3v9.3A36.3,36.3,0,0,1,369,71.2a29.2,29.2,0,0,1,12.6-3.3V87.1Z" transform="translate(-23 -32.8)" style="fill:#231f20"/><path d="M414.1,84.4v32.2a9.7,9.7,0,0,0,2.2,6.6,7.4,7.4,0,0,0,5.3,2.3q5.7,0,9.6-5.1l7.7,14.2q-9.6,8.7-20.1,8.7a25,25,0,0,1-17.8-6.9q-7.2-6.9-7.2-18.9V47.9h20.3V68.2h21.5L424.5,84.4Z" transform="translate(-23 -32.8)" style="fill:#231f20"/><path d="M52.7,62.7l-7.1-7.1v53.6a12.9,12.9,0,0,0,.6,3.7l56.1,19.8,14.1-6.2h0Z" transform="translate(-23 -32.8)" style="fill:#00c4b3"/><path d="M46.3,112.9Zm70.2,13.6-14.1,6.2L46.3,112.9c1.1,4.1,3.4,8.8,6,11.3l18.3,18.2h40.8l5.1-16Z" transform="translate(-23 -32.8)" style="fill:#22d3c5"/><path d="M45.8,55.6,23.9,88.5c-1.8,2-.9,6,2.1,8.9l12.6,12.7,7.9,2.8a12.9,12.9,0,0,1-.6-3.7V55.6Z" transform="translate(-23 -32.8)" style="fill:#0075c9"/><path d="M102.9,56.2a17.2,17.2,0,0,0-3.7-.5H45.6l70.9,70.9h0l6.2-14.1Z" transform="translate(-23 -32.8)" style="fill:#0075c9"/><path d="M102.8,56.2h0Zm11.4,6c-2.6-2.6-7.2-4.9-11.3-6l19.8,56.2-6.2,14.1h0l15.2-4.9V79.9Z" transform="translate(-23 -32.8)" style="fill:#00a8e1"/><path d="M100.1,48.4,87.4,35.7c-2.9-2.9-6.9-3.8-8.8-2l-33,21.9H99.2a17.2,17.2,0,0,1,3.7.5Z" transform="translate(-23 -32.8)" style="fill:#00c4b3"/></svg>