<?xml version="1.0" encoding="UTF-8"?>
<svg width="160px" height="50px" viewBox="0 0 160 50" version="1.1" xmlns="http://www.w3.org/2000/svg" xmlns:xlink="http://www.w3.org/1999/xlink">
    <!-- Generator: Sketch 53.2 (72643) - https://sketchapp.com -->
    <title>Group 12</title>
    <desc>Created with Sketch.</desc>
    <g id="Homepage" stroke="none" stroke-width="1" fill="none" fill-rule="evenodd">
        <g transform="translate(-30.000000, -15.000000)" id="Group-12">
            <g transform="translate(30.000000, 15.000000)">
                <path d="M17.4333197,31.5997249 L17.4333197,31.59763 C17.8302932,31.9946036 19.0390201,33.2033305 24.5390419,33.2033305 C30.0390636,33.2033305 31.2467431,31.995651 31.6437167,31.5997249 C32.0406902,31.2037987 33.2483697,29.9961192 33.2483697,24.4950501 C33.2483697,18.9939809 32.0448799,17.7863014 31.6437167,17.3893279 C31.2425534,16.9923543 30.040111,15.7846748 24.5390419,15.7846748 C19.0379727,15.7846748 17.8302932,16.9923543 17.4333197,17.3893279 C17.0363461,17.7863014 15.8286666,18.9939809 15.8286666,24.4950501 C15.8286666,29.9961192 17.0363461,31.2037987 17.4333197,31.5997249 Z M13.0467093,13.0456619 C14.9509255,11.1403982 19.4757958,9.90967539 24.5746543,9.90967539 C29.6735127,9.90967539 34.2004779,11.1403982 36.1046941,13.0456619 C38.0089103,14.9509255 39.2406806,19.4757958 39.2406806,24.5746543 C39.2406806,29.6735127 38.0089103,34.198383 36.1046941,36.1036467 C34.1994304,38.0089103 29.6672282,39.2396332 24.5746543,39.2396332 C19.4820804,39.2396332 14.9634946,38.0089103 13.0519464,36.1036467 C11.1403982,34.198383 9.90967539,29.6735127 9.90967539,24.5746543 C9.90967539,19.4757958 11.1403982,14.9509255 13.0467093,13.0456619 Z M10.5255605,38.7211584 C13.2132497,41.4109424 18.4723639,43.0155955 24.5935079,43.0155955 C30.7146519,43.0155955 35.9716713,41.4088476 38.6614553,38.7211584 C41.3512393,36.0334693 42.9558924,30.774355 42.9558924,24.653211 C42.9558924,18.5320671 41.3491444,13.2750477 38.6614553,10.5852637 C35.9737661,7.89547967 30.7146519,6.29082659 24.5935079,6.29082659 C18.4723639,6.29082659 13.2153445,7.89757451 10.5255605,10.5852637 C7.83577652,13.2729528 6.23112345,18.5320671 6.23112345,24.653211 C6.23112345,30.774355 7.83787136,36.0334693 10.5255605,38.7211584 L10.5255605,38.7211584 Z M-2.66453526e-13,24.5746543 C-2.66453526e-13,10.9979486 11.0031857,0 24.5746543,0 C38.0340485,0 48.964962,10.8188391 49.1482611,24.2342416 C49.3336551,37.9795825 37.9816773,49.3336551 24.235289,49.1482611 C10.8198866,48.9660094 -2.66453526e-13,38.0340485 -2.66453526e-13,24.5746543 Z M21.2113769,19.8162085 L27.9389791,19.8162085 C28.7089308,19.8162085 29.3331,20.4403777 29.3331,21.2103294 L29.3331,27.9389791 C29.3331,28.7089308 28.7089308,29.3331 27.9389791,29.3331 L21.2113769,29.3331 C20.4414251,29.3331 19.8172559,28.7089308 19.8172559,27.9389791 L19.8172559,21.2103294 C19.8172559,20.4403777 20.4414251,19.8162085 21.2113769,19.8162085 Z" id="Shape" fill="#E9530E" fill-rule="nonzero"></path>
                <rect id="Rectangle" fill="#263746" x="60.609171" y="17.3160082" width="5.35966695" height="15.0745215"></rect>
                <path d="M68.8618221,32.3894823 L68.8618221,17.3160082 L73.1258839,17.3160082 L73.7951876,18.9604634 C75.0437167,17.6197611 76.6881718,16.9497591 78.7285531,16.9504573 C80.5259322,16.9504573 81.9567129,17.4982599 83.0837408,18.6263352 C84.2107687,19.7219404 84.7596187,21.1233933 84.7596187,22.8589743 L84.7596187,32.3905297 L79.3947146,32.3905297 L79.3947146,23.7419525 C79.3947146,22.3708749 78.3902353,21.332878 77.0191577,21.332878 C75.3432798,21.332878 74.2172994,22.519609 74.2172994,24.316988 L74.2172994,32.3821504 L68.8618221,32.3894823 Z" id="Path" fill="#263746"></path>
                <path d="M85.976725,21.367443 L85.976725,17.3149608 L88.5073006,17.3149608 L88.5073006,15.9145553 C88.5073006,14.3004754 89.0257753,13.0215711 90.0606299,12.0464197 C91.1269072,11.0688243 92.4972865,10.5800265 94.1717678,10.5800265 C95.4362893,10.576852 96.6956971,10.7406173 97.9173549,11.0670786 L97.2480511,15.02634 C96.6653211,14.9151913 96.074184,14.85387 95.4810474,14.8430409 C94.5069434,14.8430409 93.8680149,15.4526415 93.8680149,16.4571208 L93.8680149,17.3097237 L96.9704839,17.3097237 L96.9704839,21.367443 L93.8648727,21.367443 L93.8648727,32.3894823 L88.5073006,32.3894823 L88.5073006,21.367443 L85.976725,21.367443 Z" id="Path" fill="#263746"></path>
                <path d="M106.261132,28.61352 C108.087839,28.61352 109.397118,27.0601907 109.397118,24.8679329 C109.397118,22.6442524 108.087839,21.0972077 106.261132,21.0972077 C104.434425,21.0972077 103.154473,22.6494896 103.154473,24.8679329 C103.154473,27.0601907 104.434425,28.61352 106.261132,28.61352 M100.081332,19.1730904 C101.695412,17.6805116 103.735793,16.9504573 106.261132,16.9504573 C108.78647,16.9504573 110.859322,17.6836539 112.440932,19.1730904 C114.055011,20.6394835 114.850006,22.5248461 114.850006,24.8679329 C114.850006,27.1827392 114.058154,29.0701967 112.440932,30.5627754 C110.857227,32.0291686 108.78647,32.7560806 106.261132,32.7560806 C103.735793,32.7560806 101.693317,32.022884 100.081332,30.5627754 C98.4672523,29.0701967 97.6722577,27.1827392 97.6722577,24.8679329 C97.6722577,22.5531266 98.46411,20.6656691 100.081332,19.1730904" id="Shape" fill="#263746" fill-rule="nonzero"></path>
                <path d="M121.699109,25.66188 C121.699109,27.3377579 122.795762,28.5548642 124.409842,28.5548642 C126.145423,28.5548642 127.393952,27.0319102 127.393952,24.8700278 C127.393952,22.67777 126.145423,21.154816 124.409842,21.154816 C122.795762,21.154816 121.699109,22.3729697 121.699109,24.0781755 L121.699109,25.66188 Z M116.430568,32.3915772 L116.430568,10.9508145 L121.790235,10.9508145 L121.790235,18.3812381 C122.927223,17.4377579 124.363295,16.9304722 125.840623,16.9504573 C127.881004,16.9504573 129.555834,17.6836539 130.868256,19.1730904 C132.177536,20.6394835 132.847887,22.5248461 132.847887,24.8679329 C132.847887,27.1827392 132.177536,29.0701967 130.868256,30.5627754 C129.55758,32.0249789 127.881702,32.7560806 125.840623,32.7560806 C124.013916,32.7560806 122.521337,32.1768553 121.363934,30.9890769 L120.69463,32.3894823 L116.430568,32.3915772 Z" id="Shape" fill="#263746" fill-rule="nonzero"></path>
                <path d="M134.794,17.3160082 L140.154715,17.3160082 L140.154715,32.3894823 L134.794,32.3894823 L134.794,17.3160082 Z M137.474357,10.2804634 C139.302112,10.2804634 140.550641,11.5593677 140.550641,13.3556993 C140.550641,15.0923277 139.302112,16.4016073 137.474357,16.4016073 C135.738776,16.4016073 134.429497,15.0923277 134.429497,13.3556993 C134.429497,11.5593677 135.738776,10.2804634 137.474357,10.2804634 L137.474357,10.2804634 Z" id="Shape" fill="#263746" fill-rule="nonzero"></path>
                <path d="M148.315192,25.66188 C148.315192,27.3377579 149.411845,28.5548642 151.025925,28.5548642 C152.761506,28.5548642 154.010035,27.0319102 154.010035,24.8700278 C154.010035,22.67777 152.761506,21.154816 151.025925,21.154816 C149.411845,21.154816 148.315192,22.3729697 148.315192,24.0781755 L148.315192,25.66188 Z M143.047699,38.7263956 L143.047699,17.3160082 L147.310713,17.3160082 L147.980017,18.7164137 C149.138467,17.5286352 150.629999,16.9504573 152.457753,16.9504573 C154.498134,16.9504573 156.172965,17.6836539 157.485387,19.1730904 C158.794666,20.6394835 159.465017,22.5248461 159.465017,24.8679329 C159.465017,27.1827392 158.794666,29.0701967 157.485387,30.5627754 C156.176107,32.0249789 154.500229,32.7560806 152.457753,32.7560806 C150.982003,32.7655021 149.549332,32.2590469 148.407366,31.3242524 L148.407366,38.7243007 L143.047699,38.7263956 Z" id="Shape" fill="#263746" fill-rule="nonzero"></path>
                <rect id="Rectangle" fill="#263746" x="60.609171" y="10.3495933" width="5.35966695" height="5.35966695"></rect>
            </g>
        </g>
    </g>
</svg>